<?xml version="1.0" standalone="no"?><!DOCTYPE svg PUBLIC "-//W3C//DTD SVG 1.1//EN" "http://www.w3.org/Graphics/SVG/1.1/DTD/svg11.dtd"><svg t="1618997889988" class="icon" viewBox="0 0 1024 1024" version="1.1" xmlns="http://www.w3.org/2000/svg" p-id="2018" xmlns:xlink="http://www.w3.org/1999/xlink" width="200" height="200"><defs><style type="text/css"></style></defs><path d="M985.742 749.936c0 130.864-106.178 236.964-237.17 236.964H274.298c-130.954 0-237.092-106.102-237.092-236.964V276.018c0-130.902 106.138-236.966 237.092-236.966h474.274c130.992 0 237.17 106.064 237.17 236.966v473.918z" fill="#FF4D3F" p-id="2019"></path><path d="M670.032 615.448c4.59 0 7.988 1.428 9.996 4.242 2.086 2.702 3.164 7.328 3.164 13.77v15.466h-26.514v-15.466c0-6.442 1.002-11.068 3.126-13.77 2.046-2.814 5.48-4.242 10.228-4.242m0-19.754c-14.644 0-22.498 7.424-25.98 12.072-4.794 6.264-7.126 14.672-7.126 25.694v15.466c0 10.91 8.844 19.754 19.754 19.754h26.514c10.91 0 19.754-8.844 19.754-19.754v-15.466c0-10.872-2.308-19.23-7.054-25.542-5.778-7.886-14.946-12.224-25.862-12.224z m-103.402 19.252c4.052 0 7.18 1.35 9.38 3.972 2.082 2.7 3.126 6.596 3.126 11.804v79.138c0 4.94-0.888 8.41-2.588 10.568-1.734 2.2-4.44 3.28-8.104 3.28-2.548 0-4.942-0.578-7.258-1.62-2.314-1.12-4.668-3.01-7.1-5.478v-95.494c2.044-2.124 4.092-3.704 6.172-4.706a14.674 14.674 0 0 1 6.372-1.464m0-19.754c-5.194 0-10.218 1.15-14.936 3.42-4.214 2.032-8.084 4.908-11.832 8.802a19.75 19.75 0 0 0-5.528 13.704v95.494a19.76 19.76 0 0 0 5.68 13.862c4.204 4.268 8.316 7.342 12.574 9.4 0.166 0.082 0.334 0.16 0.502 0.234 4.954 2.226 10.122 3.356 15.356 3.356 9.734 0 18.122-3.836 23.616-10.8 4.6-5.842 6.83-13.296 6.83-22.8v-79.138c0-9.612-2.436-17.642-7.24-23.87a17.116 17.116 0 0 0-0.508-0.632c-5.968-7.116-14.674-11.032-24.514-11.032z m132.962-101.956c59.826 0 108.302 55.296 108.302 116.39v88.9c0 61.13-48.476 110.65-108.302 110.65H323.354c-59.824 0-108.3-49.52-108.3-110.65v-88.9c0-61.094 48.476-116.39 108.3-116.39h376.238m-175.8 252.496h30.298v-11.724c3.936 4.742 8.258 8.176 12.814 10.376 4.59 2.236 9.8 3.316 15.708 3.316 8.876 0 15.706-2.856 20.378-8.638 4.708-5.824 7.062-14.156 7.062-24.956v-85.082c0-12.572-2.51-22.098-7.526-28.656-4.982-6.518-12.234-9.758-21.728-9.758-4.674 0-9.266 1.158-13.856 3.664-4.478 2.39-8.762 5.978-12.854 10.608v-66.918h-30.298v207.768m-225.1-177.53h34.93v177.532h33.808v-177.532h34.978v-30.238h-103.716v30.238m370.414 181.734c14.938 0 26.166-3.936 33.62-11.842 7.6-7.982 11.306-19.822 11.306-35.522v-7.868h-30.838v6.982c0 8.984-1.042 14.808-2.972 17.47-2.008 2.66-5.442 3.972-10.418 3.972-4.826 0-8.224-1.506-10.192-4.668-1.968-3.124-2.932-8.716-2.932-16.776V672.8h57.352v-39.112c0-14.54-3.668-25.646-11.04-33.398-7.374-7.752-17.908-11.648-31.646-11.648-13.468 0-24.356 4.164-32.808 12.534-8.528 8.372-12.776 19.286-12.776 32.514v68.882c0 14.774 3.9 26.38 11.578 34.712 7.682 8.448 18.294 12.652 31.766 12.652m-215.52-29.582c-2.818 0-4.862-0.77-6.176-2.468-1.196-1.58-1.852-4.204-1.852-7.828V592.46h-29.99v128.124c0 9.218 1.812 16.008 5.288 20.558 3.514 4.59 8.684 6.864 15.63 6.864 5.674 0 11.464-1.58 17.446-4.896 6.022-3.202 11.736-7.946 17.292-14.156v16.78h29.986V592.46h-29.986v116.44a41.13 41.13 0 0 1-9.264 8.212c-3.394 2.162-6.212 3.242-8.374 3.242m246.008-246.872H323.354c-34.226 0-66.606 14.816-91.172 41.718-23.44 25.67-36.882 60.086-36.882 94.426v88.9c0 71.904 57.446 130.404 128.054 130.404h376.238c70.612 0 128.056-58.5 128.056-130.404v-88.9c0-34.34-13.444-68.758-36.882-94.426-24.566-26.904-56.948-41.718-91.174-41.718z m-54.078 183.02v-22.812c0-10.47 3.916-15.526 6.86-18.416 3.016-2.986 8.192-6.876 18.97-6.876 12.094 0 16.038 4.146 17.332 5.508 3.714 3.906 5.6 10.564 5.6 19.786v19.358h-37.598a19.63 19.63 0 0 0-11.164 3.452z m-91.428-31.866a19.754 19.754 0 0 0 14.804-6.672c2.558-2.896 5.104-5.062 7.356-6.264l0.164-0.09c2.026-1.106 3.41-1.248 4.388-1.248 4.506 0 5.462 1.252 6.036 2.002 1.042 1.364 3.464 5.71 3.464 16.658v85.082c0 8.334-1.868 11.542-2.67 12.536-0.262 0.324-1.054 1.304-5.018 1.304-2.924 0-5.23-0.432-7.054-1.32-2.152-1.04-4.238-2.79-6.266-5.232a19.752 19.752 0 0 0-25.748-4.088v-95.716a19.818 19.818 0 0 0 10.544 3.048z m-99.188-407.858l-44.272 133.948v94.994H372.6v-90.674l-45.234-138.268h38.248l24.712 91.522h2.392l23.504-91.522h38.676m0-19.754h-38.674a19.75 19.75 0 0 0-19.132 14.84l-6.016 23.424-6.388-23.66a19.754 19.754 0 0 0-19.072-14.604h-38.248a19.756 19.756 0 0 0-18.776 25.898l44.254 135.276v87.524c0 10.91 8.844 19.754 19.754 19.754h38.026c10.91 0 19.754-8.844 19.754-19.754v-91.814l43.274-130.928a19.756 19.756 0 0 0-18.756-25.956z m52.992 75.56c14.01 0 25.434 4.09 34.39 12.228 8.876 8.176 13.354 18.744 13.354 31.626v87.204c0 14.462-4.4 25.724-13.084 33.978-8.8 8.254-20.844 12.342-36.166 12.342-14.78 0-26.592-4.242-35.506-12.728-8.798-8.524-13.238-19.902-13.238-34.25v-87.512c0-13.152 4.554-23.526 13.586-31.278 9.108-7.712 21.34-11.61 36.664-11.61m-1.622 148.144c4.554 0 8.222-1.274 10.922-3.858 2.662-2.622 4.054-6.172 4.054-10.684v-92.024c0-3.666-1.392-6.634-4.172-8.948-2.738-2.276-6.33-3.394-10.806-3.394-4.13 0-7.45 1.118-10.074 3.394-2.51 2.314-3.822 5.284-3.822 8.948v92.024c0 4.628 1.196 8.176 3.59 10.722 2.396 2.586 5.832 3.82 10.308 3.82m1.622-167.896c-20.038 0-36.668 5.48-49.432 16.29a4.266 4.266 0 0 0-0.098 0.084c-13.396 11.498-20.476 27.496-20.476 46.268v87.512c0 19.768 6.476 36.066 19.248 48.438l0.126 0.12c12.668 12.058 29.198 18.172 49.126 18.172 20.452 0 37.166-5.952 49.68-17.686l0.096-0.09c12.76-12.128 19.228-28.376 19.228-48.296V316.44c0-18.308-6.82-34.268-19.722-46.154l-0.1-0.09c-12.68-11.524-28.72-17.364-47.676-17.364z m171.48 24.036v168.852h-33.772v-18.706c-6.174 6.866-12.66 12.15-19.454 15.736-6.714 3.586-13.196 5.4-19.564 5.4-7.838 0-13.664-2.546-17.64-7.598-3.936-4.976-5.944-12.496-5.944-22.564v-141.122h33.732v129.436c0 3.972 0.772 6.866 2.164 8.64 1.386 1.85 3.702 2.738 6.868 2.738 2.47 0 5.596-1.196 9.458-3.548a46.98 46.98 0 0 0 10.378-9.102v-128.164h33.774m0-19.752h-33.772a19.7 19.7 0 0 0-14.434 6.268 19.71 19.71 0 0 0-14.436-6.268h-33.732c-10.91 0-19.754 8.844-19.754 19.754v141.122c0 14.544 3.434 26.258 10.204 34.818 5.406 6.868 15.57 15.096 33.134 15.096 8.87 0 17.874-2.24 26.796-6.662a19.68 19.68 0 0 0 12.22 4.232h33.772c10.91 0 19.754-8.844 19.754-19.754v-168.852c0.002-10.91-8.842-19.754-19.752-19.754z m48.708 699.008H294.83c-124.896 0-226.506-101.636-226.506-226.566V296.358c0-124.908 101.61-226.526 226.506-226.526h433.248c124.918 0 226.544 101.62 226.544 226.526v433.198c0.002 124.928-101.626 226.566-226.544 226.566zM294.83 89.636c-113.976 0-206.702 92.734-206.702 206.72v433.198c0 114.008 92.726 206.762 206.702 206.762h433.248c113.996 0 206.74-92.754 206.74-206.762V296.358c0-113.986-92.744-206.72-206.74-206.72H294.83z" fill="#802720" p-id="2020"></path><path d="M670.032 615.448c-4.748 0-8.182 1.428-10.228 4.242-2.124 2.702-3.126 7.328-3.126 13.77v15.466h26.514v-15.466c0-6.442-1.078-11.068-3.164-13.77-2.008-2.814-5.406-4.242-9.996-4.242zM566.63 614.946a14.62 14.62 0 0 0-6.37 1.466c-2.08 1.002-4.126 2.582-6.172 4.706v95.494c2.432 2.468 4.786 4.36 7.1 5.478 2.316 1.042 4.708 1.62 7.258 1.62 3.664 0 6.37-1.08 8.104-3.28 1.7-2.158 2.588-5.628 2.588-10.568v-79.138c0-5.208-1.044-9.106-3.126-11.804-2.202-2.626-5.328-3.974-9.382-3.974z" fill="#FFFFFF" p-id="2021"></path><path d="M699.592 493.236H323.354c-59.824 0-108.3 55.296-108.3 116.39v88.9c0 61.13 48.476 110.65 108.3 110.65h376.238c59.826 0 108.302-49.52 108.302-110.65v-88.9c0-61.094-48.476-116.39-108.302-116.39z m-297.184 74.966h-34.978v177.532h-33.808v-177.532h-34.93v-30.238h103.716v30.238z m98.802 177.53h-29.986v-16.78c-5.558 6.21-11.272 10.956-17.292 14.156-5.98 3.316-11.77 4.896-17.446 4.896-6.948 0-12.118-2.274-15.63-6.864-3.474-4.55-5.288-11.34-5.288-20.558V592.46h29.99v117.596c0 3.626 0.656 6.248 1.852 7.828 1.314 1.7 3.358 2.468 6.176 2.468 2.162 0 4.978-1.08 8.376-3.24a41.044 41.044 0 0 0 9.264-8.212v-116.44h29.986v153.272z m108.842-31.626c0 10.798-2.354 19.13-7.062 24.956-4.674 5.784-11.502 8.638-20.378 8.638-5.906 0-11.118-1.08-15.708-3.316-4.556-2.2-8.878-5.632-12.814-10.376v11.724h-30.298V537.962h30.298v66.918c4.092-4.628 8.376-8.216 12.854-10.608 4.59-2.506 9.182-3.664 13.856-3.664 9.494 0 16.746 3.24 21.728 9.758 5.016 6.558 7.526 16.084 7.526 28.656v85.084z m103.978-41.306h-57.352v28.886c0 8.058 0.962 13.652 2.932 16.776 1.966 3.162 5.366 4.668 10.192 4.668 4.976 0 8.41-1.312 10.418-3.972 1.93-2.662 2.972-8.486 2.972-17.47v-6.982h30.838v7.868c0 15.7-3.708 27.54-11.306 35.522-7.454 7.906-18.682 11.842-33.62 11.842-13.47 0-24.084-4.204-31.766-12.65-7.678-8.332-11.578-19.94-11.578-34.712v-68.882c0-13.228 4.248-24.142 12.776-32.514 8.454-8.37 19.34-12.534 32.808-12.534 13.738 0 24.274 3.896 31.646 11.648s11.04 18.86 11.04 33.398V672.8zM327.368 216.778l45.234 138.268v90.674h38.024v-94.994l44.272-133.948h-38.674L392.72 308.3h-2.392l-24.712-91.522zM471.224 284.196c-9.032 7.752-13.586 18.126-13.586 31.278v87.512c0 14.348 4.44 25.726 13.238 34.25 8.916 8.486 20.726 12.728 35.506 12.728 15.322 0 27.366-4.088 36.166-12.342 8.684-8.254 13.084-19.516 13.084-33.978V316.44c0-12.882-4.478-23.45-13.354-31.626-8.956-8.138-20.378-12.228-34.39-12.228-15.322-0.002-27.554 3.896-36.664 11.61z m50.022 29.968v92.024c0 4.512-1.392 8.062-4.054 10.684-2.702 2.584-6.37 3.858-10.922 3.858-4.476 0-7.912-1.234-10.304-3.818-2.394-2.546-3.59-6.094-3.59-10.722v-92.024c0-3.666 1.312-6.634 3.822-8.948 2.624-2.276 5.944-3.394 10.074-3.394 4.476 0 8.068 1.118 10.806 3.394 2.776 2.31 4.168 5.28 4.168 8.946zM679.37 445.72v-168.852h-33.772v128.164a47.076 47.076 0 0 1-10.378 9.102c-3.864 2.352-6.988 3.548-9.458 3.548-3.166 0-5.48-0.886-6.868-2.738-1.392-1.774-2.164-4.666-2.164-8.64v-129.436h-33.732v141.122c0 10.068 2.008 17.588 5.944 22.564 3.976 5.052 9.802 7.598 17.64 7.598 6.37 0 12.85-1.812 19.564-5.4 6.792-3.586 13.28-8.872 19.454-15.736v18.706h33.77z" fill="#FFFFFF" p-id="2022"></path><path d="M670.032 615.448c-4.748 0-8.182 1.428-10.228 4.242-2.124 2.702-3.126 7.328-3.126 13.77v15.466h26.514v-15.466c0-6.442-1.078-11.068-3.164-13.77-2.008-2.814-5.406-4.242-9.996-4.242zM566.63 614.946a14.62 14.62 0 0 0-6.37 1.466c-2.08 1.002-4.126 2.582-6.172 4.706v95.494c2.432 2.468 4.786 4.36 7.1 5.478 2.316 1.042 4.708 1.62 7.258 1.62 3.664 0 6.37-1.08 8.104-3.28 1.7-2.158 2.588-5.628 2.588-10.568v-79.138c0-5.208-1.044-9.106-3.126-11.804-2.202-2.626-5.328-3.974-9.382-3.974z" fill="#FFFFFF" p-id="2023"></path><path d="M699.592 493.236H323.354c-59.824 0-108.3 55.296-108.3 116.39v88.9c0 61.13 48.476 110.65 108.3 110.65h376.238c59.826 0 108.302-49.52 108.302-110.65v-88.9c0-61.094-48.476-116.39-108.302-116.39z m-297.184 74.966h-34.978v177.532h-33.808v-177.532h-34.93v-30.238h103.716v30.238z m98.802 177.53h-29.986v-16.78c-5.558 6.21-11.272 10.956-17.292 14.156-5.98 3.316-11.77 4.896-17.446 4.896-6.948 0-12.118-2.274-15.63-6.864-3.474-4.55-5.288-11.34-5.288-20.558V592.46h29.99v117.596c0 3.626 0.656 6.248 1.852 7.828 1.314 1.7 3.358 2.468 6.176 2.468 2.162 0 4.978-1.08 8.376-3.24a41.044 41.044 0 0 0 9.264-8.212v-116.44h29.986v153.272z m108.842-31.626c0 10.798-2.354 19.13-7.062 24.956-4.674 5.784-11.502 8.638-20.378 8.638-5.906 0-11.118-1.08-15.708-3.316-4.556-2.2-8.878-5.632-12.814-10.376v11.724h-30.298V537.962h30.298v66.918c4.092-4.628 8.376-8.216 12.854-10.608 4.59-2.506 9.182-3.664 13.856-3.664 9.494 0 16.746 3.24 21.728 9.758 5.016 6.558 7.526 16.084 7.526 28.656v85.084z m103.978-41.306h-57.352v28.886c0 8.058 0.962 13.652 2.932 16.776 1.966 3.162 5.366 4.668 10.192 4.668 4.976 0 8.41-1.312 10.418-3.972 1.93-2.662 2.972-8.486 2.972-17.47v-6.982h30.838v7.868c0 15.7-3.708 27.54-11.306 35.522-7.454 7.906-18.682 11.842-33.62 11.842-13.47 0-24.084-4.204-31.766-12.65-7.678-8.332-11.578-19.94-11.578-34.712v-68.882c0-13.228 4.248-24.142 12.776-32.514 8.454-8.37 19.34-12.534 32.808-12.534 13.738 0 24.274 3.896 31.646 11.648s11.04 18.86 11.04 33.398V672.8zM327.368 216.778l45.234 138.268v90.674h38.024v-94.994l44.272-133.948h-38.674L392.72 308.3h-2.392l-24.712-91.522zM471.224 284.196c-9.032 7.752-13.586 18.126-13.586 31.278v87.512c0 14.348 4.44 25.726 13.238 34.25 8.916 8.486 20.726 12.728 35.506 12.728 15.322 0 27.366-4.088 36.166-12.342 8.684-8.254 13.084-19.516 13.084-33.978V316.44c0-12.882-4.478-23.45-13.354-31.626-8.956-8.138-20.378-12.228-34.39-12.228-15.322-0.002-27.554 3.896-36.664 11.61z m50.022 29.968v92.024c0 4.512-1.392 8.062-4.054 10.684-2.702 2.584-6.37 3.858-10.922 3.858-4.476 0-7.912-1.234-10.304-3.818-2.394-2.546-3.59-6.094-3.59-10.722v-92.024c0-3.666 1.312-6.634 3.822-8.948 2.624-2.276 5.944-3.394 10.074-3.394 4.476 0 8.068 1.118 10.806 3.394 2.776 2.31 4.168 5.28 4.168 8.946zM679.37 445.72v-168.852h-33.772v128.164a47.076 47.076 0 0 1-10.378 9.102c-3.864 2.352-6.988 3.548-9.458 3.548-3.166 0-5.48-0.886-6.868-2.738-1.392-1.774-2.164-4.666-2.164-8.64v-129.436h-33.732v141.122c0 10.068 2.008 17.588 5.944 22.564 3.976 5.052 9.802 7.598 17.64 7.598 6.37 0 12.85-1.812 19.564-5.4 6.792-3.586 13.28-8.872 19.454-15.736v18.706h33.77z" fill="#FFFFFF" p-id="2024"></path></svg>