<?xml version="1.0" standalone="no"?><!DOCTYPE svg PUBLIC "-//W3C//DTD SVG 1.1//EN" "http://www.w3.org/Graphics/SVG/1.1/DTD/svg11.dtd"><svg t="1618778361144" class="icon" viewBox="0 0 1024 1024" version="1.1" xmlns="http://www.w3.org/2000/svg" p-id="1207" xmlns:xlink="http://www.w3.org/1999/xlink" width="200" height="200"><defs><style type="text/css"></style></defs><path d="M496.32768 577.71648l-45.1712-45.16864-30.11456 75.28576 75.28576-30.11712z m-25.05088-79.1936l59.08224 59.06816 337.47712-337.47712-59.06688-59.07712-337.49248 337.48608zM922.80832 75.71072l-45.54496 45.53216 30.36288 30.37056 45.53472-45.54112-30.35264-30.3616zM543.98848 598.40256c-2.14656 2.11968-4.64128 3.90784-7.60064 4.83968l0.02816 0.08576-143.0848 57.27232c-0.07424 0.02816-0.14976 0.06528-0.23808 0.09344l-0.25728 0.10368-0.01792-0.0576c-1.80992 0.58112-3.73504 0.94336-5.74464 0.94336-10.57792 0-19.14368-8.57088-19.14368-19.16416 0-2.00704 0.39168-3.90528 0.97664-5.73696l-0.08448-0.0192 0.41216-1.03808c0.13056-0.3648 0.26624-0.71168 0.43008-1.06496l56.59008-141.57952 0.08448 0.02816c0.93056-2.96448 2.70848-5.4592 4.83072-7.60064l-0.20096-0.20608 225.91744-226.08128H99.61984c-21.14432 0-38.28736 17.14304-38.28736 38.28736v631.75168c0 21.14432 17.14304 38.28736 38.28736 38.28736h631.7504c21.1456 0 38.28864-17.14432 38.28864-38.28736v-556.2752L544.18816 598.5984l-0.19968-0.19584z" fill="#FFFFFF" p-id="1208"></path><path d="M808.76416 161.0368l-63.04 63.04896 59.07712 59.06688 63.04-63.02976z" fill="#EE6A56" p-id="1209"></path><path d="M367.92448 642.5216c0-0.13824 0.04224-0.28032 0.05248-0.41856H195.33568v19.14368h187.71328c-8.63232-1.85216-15.12448-9.52704-15.12448-18.72512m-172.5888 76.15616h440.31104v-19.1424H195.33568v19.1424z m0 57.43104h363.73376V756.9664H195.33568v19.1424z" fill="#F7D54A" p-id="1210"></path><path d="M555.72864 414.6368l-13.53472 13.54496 8.94976 8.94592 13.53472-13.536-8.94976-8.95488z m8.94976 63.10528l13.53472 13.536 13.53472-13.536-13.53472-13.54496-13.53472 13.54496z m-27.08096-27.0784l13.54624 13.53472 13.53472-13.53472-13.53472-13.536-13.54624 13.536z m54.15168-27.072l-13.53472-13.53472-13.53472 13.53472 13.53472 13.536 13.53472-13.536z m0 54.1504l9.54496 9.536 13.536-13.536-9.54496-9.54496-13.536 13.54496z m27.08096-27.0784l-13.54496-13.536-13.536 13.536 13.536 13.53472 13.54496-13.53472z m-40.61696-13.536l-13.53472 13.536 13.53472 13.53472 13.53472-13.53472-13.53472-13.536z" fill="" p-id="1211"></path><path d="M712.2176 411.43168v498.68416H118.75584V316.65536h500.27904l19.14368-19.14368H99.61088v631.75168h631.74912V392.28672l-19.1424 19.14496z m-159.09248 123.39712l13.53088-13.53472-59.06816-59.07712-13.5424 13.536 59.07968 59.07584z" fill="" p-id="1212"></path><path d="M994.07104 119.66336A19.05152 19.05152 0 0 0 999.68 106.1184c0-5.28128-2.14016-10.07744-5.60896-13.54496L936.64 35.10528a19.10656 19.10656 0 0 0-13.536-5.60896c-5.28 0-10.0672 2.1504-13.53472 5.60896l-62.368 62.41408c-13.09568-3.99232-27.8656-1.00992-38.21312 9.34784-0.3264 0.32768-0.56448 0.70144-0.87808 1.02784l-112.96256 113.04192H99.61984c-42.2976 0-76.57472 34.28736-76.57472 76.57472v631.75168c0 42.28736 34.27712 76.57472 76.57472 76.57472h631.7504c42.28864 0 76.57472-34.28736 76.57472-76.57472V334.66752l113.39776-113.48096c0.3264-0.30848 0.70144-0.55168 1.01888-0.85888 10.35264-10.36672 13.3696-25.15328 9.3696-38.26816l62.33984-62.3872v-0.00896z m-185.00736 41.4656l59.07072 59.11552-337.48096 337.71904-59.07712-59.11424 337.48736-337.72032zM496.62848 578.0992l-75.28704 30.13632 30.112-75.3408 45.17504 45.20448z m273.0304 351.16288c0 21.14432-17.14432 38.28736-38.28864 38.28736H99.61984c-21.15328 0-38.28736-17.14432-38.28736-38.28736V297.51168c0-21.14432 17.13408-38.28736 38.28736-38.28736h557.2672L430.9696 485.3056l0.20096 0.20608c-2.12224 2.1504-3.90144 4.63616-4.84224 7.60064l-0.07424-0.02816-56.60032 141.57824c-0.15488 0.34432-0.28416 0.70016-0.41984 1.06496l-0.41216 1.03808 0.07552 0.0192c-0.576 1.82272-0.9664 3.72992-0.9664 5.73696 0 10.592 8.56576 19.16416 19.14368 19.16416 2.0096 0 3.92576-0.37248 5.74464-0.94336l0.01792 0.0576 0.25728-0.10368c0.08832-0.02816 0.15488-0.06528 0.2432-0.09344l143.07968-57.27232-0.02816-0.08576c2.96064-0.94208 5.44512-2.72 7.60064-4.83968l0.19968 0.19584 225.46944-225.62432v556.28544z m138.26432-777.56416l-30.3616-30.38976 45.54112-45.56032 30.35392 30.37056-45.53344 45.57952z" fill="" p-id="1213"></path></svg>