<?xml version="1.0" standalone="no"?><!DOCTYPE svg PUBLIC "-//W3C//DTD SVG 1.1//EN" "http://www.w3.org/Graphics/SVG/1.1/DTD/svg11.dtd"><svg t="1618872441549" class="icon" viewBox="0 0 1024 1024" version="1.1" xmlns="http://www.w3.org/2000/svg" p-id="4805" xmlns:xlink="http://www.w3.org/1999/xlink" width="200" height="200"><defs><style type="text/css"></style></defs><path d="M640 146.56v135.936c36.224 15.808 69.504 38.4 98.304 67.2C798.72 410.112 832 490.496 832 576s-33.28 165.824-93.696 226.304C677.888 862.72 597.504 896 512 896s-165.824-33.28-226.304-93.696C225.28 741.888 192 661.504 192 576s33.28-165.824 93.696-226.304c28.8-28.8 62.08-51.392 98.304-67.2V146.56a448 448 0 1 0 256 0zM448 0h128v512H448z" fill="#d81e06" p-id="4806"></path></svg>