<?xml version="1.0" standalone="no"?><!DOCTYPE svg PUBLIC "-//W3C//DTD SVG 1.1//EN" "http://www.w3.org/Graphics/SVG/1.1/DTD/svg11.dtd"><svg t="1618947931803" class="icon" viewBox="0 0 1024 1024" version="1.1" xmlns="http://www.w3.org/2000/svg" p-id="2772" xmlns:xlink="http://www.w3.org/1999/xlink" width="200" height="200"><defs><style type="text/css"></style></defs><path d="M512 512m-414 0a414 414 0 1 0 828 0 414 414 0 1 0-828 0Z" fill="#F0C48A" p-id="2773"></path><path d="M178.8 194.8H472c18.8 0 34-15.2 34-34s-15.2-34-34-34H178.8c-18.8 0-34 15.2-34 34s15.2 34 34 34z" fill="#D3E6F8" p-id="2774"></path><path d="M156.4 170h316v16.4h-316z" fill="#A4CFF2" p-id="2775"></path><path d="M538.578 219.986l69.154-69.154 186.25 186.25-69.154 69.154z" fill="#D3E6F8" p-id="2776"></path><path d="M605.4 203.9l27.72-27.72 140.43 140.432-27.718 27.72z" fill="#A4CFF2" p-id="2777"></path><path d="M740.8 429.4h97.8v194.8h-97.8z" fill="#D3E6F8" p-id="2778"></path><path d="M800 473h39.2v151.2H800z" fill="#A4CFF2" p-id="2779"></path><path d="M1012.2 941.4H11.8v-37.6c0-35.6 28.8-64.4 64.4-64.4h871.6c35.6 0 64.4 28.8 64.4 64.4v37.6z" fill="#7BABF1" p-id="2780"></path><path d="M1012.2 953H11.8c-6.4 0-11.8-5.2-11.8-11.8v-37.6c0-42 34.2-76.2 76.2-76.2h871.6c42 0 76.2 34.2 76.2 76.2v37.6c0 6.6-5.2 11.8-11.8 11.8zM23.4 929.6h977v-26c0-29-23.6-52.8-52.8-52.8H76.2c-29 0-52.8 23.6-52.8 52.8v26z" fill="#4C4372" p-id="2781"></path><path d="M849 624.2h-118.8c-26.6 0-48 21.6-48 48v166.8h215v-166.8c0-26.4-21.6-48-48.2-48z" fill="#7BABF1" p-id="2782"></path><path d="M755 684.4h64.4v108h-64.4z" fill="#FFFFFF" p-id="2783"></path><path d="M472 206.6H178.8c-25.2 0-45.6-20.4-45.6-45.6 0-25.2 20.4-45.6 45.6-45.6H472c25.2 0 45.6 20.6 45.6 45.6s-20.4 45.6-45.6 45.6z m-293.2-68c-12.2 0-22.2 10-22.2 22.2s10 22.2 22.2 22.2H472c12.2 0 22.2-10 22.2-22.2s-10-22.2-22.2-22.2H178.8zM838.6 636h-97.8c-6.4 0-11.8-5.2-11.8-11.8v-194.8c0-6.4 5.2-11.8 11.8-11.8h97.8c6.4 0 11.8 5.2 11.8 11.8v194.8c-0.2 6.6-5.4 11.8-11.8 11.8z m-86-23.4h74.2v-171.4h-74.2v171.4zM725 418c-3 0-6-1.2-8.2-3.4l-186.2-186.2c-2.2-2.2-3.4-5.2-3.4-8.2 0-3.2 1.2-6 3.4-8.2l69.2-69.2c4.6-4.6 12-4.6 16.6 0l186.2 186.2c2.2 2.2 3.4 5.2 3.4 8.2 0 3.2-1.2 6-3.4 8.2l-69.2 69.2c-2.4 2.2-5.4 3.4-8.4 3.4z m-169.8-198l169.6 169.6 52.6-52.6-169.6-169.6-52.6 52.6z" fill="#4C4372" p-id="2784"></path><path d="M277.4 253.2h-66.2c-10.2 0-18.6-8.4-18.6-18.6V194.8H296v39.8c0 10.4-8.2 18.6-18.6 18.6z" fill="#7BABF1" p-id="2785"></path><path d="M223.6 253.2h41.6v165.2h-41.6z" fill="#FFFFFF" p-id="2786"></path><path d="M265.2 430.2h-41.6c-6.4 0-11.8-5.2-11.8-11.8v-165.2c0-6.4 5.2-11.8 11.8-11.8h41.6c6.4 0 11.8 5.2 11.8 11.8v165.2c0 6.6-5.4 11.8-11.8 11.8z m-30-23.4h18.2v-141.8h-18.2v141.8z" fill="#4C4372" p-id="2787"></path><path d="M196 409.4l-69.2 69.2 36.8 106.8c3.8 11 16.4 16.4 27 11.4 9-4.2 13.4-14.4 10.2-23.8l-27.6-84.4 44.6-47.4L196 409.4z" fill="#FD919E" p-id="2788"></path><path d="M291.4 409.4l69.2 69.2-36.8 106.8c-3.8 11-16.4 16.4-27 11.4-9-4.2-13.4-14.4-10.2-23.8l27.6-84.4-44.6-47.4 21.8-31.8z" fill="#E8677D" p-id="2789"></path><path d="M182.4 610.4c-4.2 0-8.2-0.8-12.2-2.4-8.2-3.4-14.6-10.2-17.6-18.8l-36.8-106.8c-1.4-4.2-0.4-9 2.8-12.2l69.2-69.2c2.4-2.4 5.8-3.6 9.4-3.4 3.4 0.4 6.6 2.2 8.6 5l22 31.8c3.2 4.6 2.6 10.6-1.2 14.8l-39.8 42.2 25.4 77.8c4.8 15-2.2 31.4-16.4 38-4.2 2.2-8.8 3.2-13.4 3.2z m-42-128.8l34.4 100c1 3 3.2 4.2 4.4 4.8 1.2 0.6 3.6 1.2 6.4-0.2 3.6-1.8 5.4-5.8 4.2-9.6L162.2 492c-1.4-4-0.4-8.6 2.6-11.6l38.2-40.4-8.6-12.4-54 54zM305.2 610.4c-4.6 0-9.2-1-13.6-3-14.2-6.8-21.2-23.2-16.4-38l25.4-77.8-39.8-42.2c-3.8-4-4.2-10.2-1.2-14.8l22-31.8c2-2.8 5.2-4.6 8.6-5 3.4-0.4 6.8 1 9.4 3.4l69.2 69.2c3.2 3.2 4.2 7.8 2.8 12.2l-36.8 106.8c-3 8.4-9.4 15.2-17.6 18.8-3.8 1.4-8 2.2-12 2.2zM284.4 440l38.2 40.4c3 3.2 4 7.6 2.6 11.6l-27.6 84.4c-1.2 3.8 0.6 8 4.2 9.6 2.8 1.4 5.2 0.6 6.4 0.2 1.2-0.6 3.4-1.8 4.4-4.8l34.4-100-54-54-8.6 12.6z" fill="#4C4372" p-id="2790"></path><path d="M244.4 413.6m-48.4 0a48.4 48.4 0 1 0 96.8 0 48.4 48.4 0 1 0-96.8 0Z" fill="#FD919E" p-id="2791"></path><path d="M897.2 851H682.2c-6.4 0-11.8-5.2-11.8-11.8v-166.8c0-33 26.8-59.8 59.8-59.8h118.8c33 0 59.8 26.8 59.8 59.8v166.8c0 6.4-5.2 11.8-11.6 11.8zM694 827.4h191.4v-155.2c0-20-16.4-36.4-36.4-36.4h-118.8c-20 0-36.4 16.4-36.4 36.4v155.2zM277.4 265h-66.2c-16.8 0-30.2-13.6-30.2-30.2v-40c0-6.4 5.2-11.8 11.8-11.8H296c6.4 0 11.8 5.2 11.8 11.8v39.8c0 16.8-13.6 30.4-30.4 30.4z m-73-58.4v28.2c0 3.8 3 6.8 6.8 6.8h66.2c3.8 0 6.8-3 6.8-6.8v-28.2h-79.8zM244.4 473.6c-33.2 0-60-27-60-60 0-33.2 27-60 60-60 33.2 0 60 27 60 60 0 33.2-27 60-60 60z m0-96.6c-20.2 0-36.6 16.4-36.6 36.6 0 20.2 16.4 36.6 36.6 36.6s36.6-16.4 36.6-36.6c0-20.2-16.4-36.6-36.6-36.6z" fill="#4C4372" p-id="2792"></path><path d="M789.6 406.6m-78.2 0a78.2 78.2 0 1 0 156.4 0 78.2 78.2 0 1 0-156.4 0Z" fill="#A4CFF2" p-id="2793"></path><path d="M789.6 406.6m-34 0a34 34 0 1 0 68 0 34 34 0 1 0-68 0Z" fill="#7BABF1" p-id="2794"></path><path d="M789.6 496.6c-49.6 0-90-40.4-90-90s40.4-90 90-90 90 40.4 90 90-40.4 90-90 90z m0-156.4c-36.6 0-66.4 29.8-66.4 66.4s29.8 66.4 66.4 66.4 66.4-29.8 66.4-66.4-29.6-66.4-66.4-66.4z" fill="#4C4372" p-id="2795"></path><path d="M789.6 452.4c-25.2 0-45.6-20.4-45.6-45.6 0-25.2 20.4-45.6 45.6-45.6 25.2 0 45.6 20.4 45.6 45.6 0.2 25-20.4 45.6-45.6 45.6z m0-68c-12.2 0-22.2 10-22.2 22.2s10 22.2 22.2 22.2 22.2-10 22.2-22.2-9.8-22.2-22.2-22.2z" fill="#4C4372" p-id="2796"></path><path d="M546.8 160.8m-78.2 0a78.2 78.2 0 1 0 156.4 0 78.2 78.2 0 1 0-156.4 0Z" fill="#A4CFF2" p-id="2797"></path><path d="M522.664059 184.813357a34 34 0 1 0 48.082422-48.0841 34 34 0 1 0-48.082422 48.0841Z" fill="#7BABF1" p-id="2798"></path><path d="M546.8 250.8c-49.6 0-90-40.4-90-90s40.4-90 90-90 90 40.4 90 90c-0.2 49.6-40.4 90-90 90z m0-156.4c-36.6 0-66.4 29.8-66.4 66.4s29.8 66.4 66.4 66.4c36.6 0 66.4-29.8 66.4-66.4s-29.8-66.4-66.4-66.4z" fill="#4C4372" p-id="2799"></path><path d="M546.8 206.6c-25.2 0-45.6-20.4-45.6-45.6 0-25.2 20.6-45.6 45.6-45.6 25.2 0 45.6 20.6 45.6 45.6s-20.4 45.6-45.6 45.6z m0-68c-12.2 0-22.2 10-22.2 22.2s10 22.2 22.2 22.2 22.2-10 22.2-22.2-10-22.2-22.2-22.2z" fill="#4C4372" p-id="2800"></path><path d="M794.4 690.2h17.2v93.2h-17.2z" fill="#D3E6F8" p-id="2801"></path><path d="M819.6 804.2h-64.4c-6.4 0-11.8-5.2-11.8-11.8v-108c0-6.4 5.2-11.8 11.8-11.8h64.4c6.4 0 11.8 5.2 11.8 11.8v108c-0.2 6.6-5.4 11.8-11.8 11.8z m-52.8-23.4h41v-84.6h-41v84.6z" fill="#4C4372" p-id="2802"></path><path d="M811.6 750.2h-56.6c-6.4 0-11.8-5.2-11.8-11.8 0-6.4 5.2-11.8 11.8-11.8h56.6c6.4 0 11.8 5.2 11.8 11.8 0 6.6-5.4 11.8-11.8 11.8z" fill="#4C4372" p-id="2803"></path></svg>