<?xml version="1.0" standalone="no"?><!DOCTYPE svg PUBLIC "-//W3C//DTD SVG 1.1//EN" "http://www.w3.org/Graphics/SVG/1.1/DTD/svg11.dtd"><svg t="1618947711218" class="icon" viewBox="0 0 1024 1024" version="1.1" xmlns="http://www.w3.org/2000/svg" p-id="1571" xmlns:xlink="http://www.w3.org/1999/xlink" width="200" height="200"><defs><style type="text/css"></style></defs><path d="M672 640c-8 0-16-3.2-22.4-9.6L512 492.8l-137.6 137.6c-12.8 12.8-32 12.8-44.8 0-12.8-12.8-12.8-32 0-44.8l160-160c12.8-12.8 32-12.8 44.8 0l160 160c12.8 12.8 12.8 32 0 44.8-6.4 6.4-14.4 9.6-22.4 9.6z" p-id="1572" fill="#8a8a8a"></path><path d="M512 960c-17.6 0-32-14.4-32-32V464c0-17.6 14.4-32 32-32s32 14.4 32 32v464c0 17.6-14.4 32-32 32z" p-id="1573" fill="#8a8a8a"></path><path d="M768 768h-64c-17.6 0-32-14.4-32-32s14.4-32 32-32h64c88 0 160-72 160-160 0-76.8-57.6-145.6-134.4-158.4-14.4-1.6-25.6-14.4-27.2-28.8C753.6 227.2 643.2 128 512 128s-241.6 99.2-254.4 230.4c-1.6 14.4-12.8 25.6-27.2 28.8-76.8 11.2-134.4 80-134.4 156.8 0 88 72 160 160 160h64c17.6 0 32 14.4 32 32s-14.4 32-32 32h-64C132.8 768 32 667.2 32 544c0-100.8 68.8-188.8 164.8-216C224 176 355.2 64 512 64c156.8 0 288 112 315.2 264C923.2 355.2 992 443.2 992 544c0 123.2-100.8 224-224 224z" p-id="1574" fill="#8a8a8a"></path></svg>